<svg xmlns="http://www.w3.org/2000/svg" xmlns:xlink="http://www.w3.org/1999/xlink" version="1.1" width="256" height="256" viewBox="0 0 256 256" xml:space="preserve">

<defs>
</defs>
<g style="stroke: none; stroke-width: 0; stroke-dasharray: none; stroke-linecap: butt; stroke-linejoin: miter; stroke-miterlimit: 10; fill: none; fill-rule: nonzero; opacity: 1;" transform="translate(1.4065934065934016 1.4065934065934016) scale(2.81 2.81)" >
	<path d="M 45 90 C 20.187 90 0 69.813 0 45 C 0 20.187 20.187 0 45 0 c 24.813 0 45 20.187 45 45 C 90 69.813 69.813 90 45 90 z" style="stroke: none; stroke-width: 1; stroke-dasharray: none; stroke-linecap: butt; stroke-linejoin: miter; stroke-miterlimit: 10; fill: rgb(55,181,55); fill-rule: nonzero; opacity: 1;" transform=" matrix(1 0 0 1 0 0) " stroke-linecap="round" />
	<path d="M 57.771 35.952 c -1.657 0 -3 -1.343 -3 -3 c 0 -5.388 -4.383 -9.771 -9.771 -9.771 s -9.771 4.383 -9.771 9.771 c 0 1.657 -1.343 3 -3 3 s -3 -1.343 -3 -3 c 0 -8.696 7.075 -15.771 15.771 -15.771 c 8.696 0 15.771 7.075 15.771 15.771 C 60.771 34.609 59.428 35.952 57.771 35.952 z" style="stroke: none; stroke-width: 1; stroke-dasharray: none; stroke-linecap: butt; stroke-linejoin: miter; stroke-miterlimit: 10; fill: rgb(255,255,255); fill-rule: nonzero; opacity: 1;" transform=" matrix(1 0 0 1 0 0) " stroke-linecap="round" />
	<path d="M 45 63.171 c -1.657 0 -3 -1.343 -3 -3 v -5.246 c 0 -1.657 1.343 -3 3 -3 c 1.657 0 3 1.343 3 3 v 5.246 C 48 61.828 46.657 63.171 45 63.171 z" style="stroke: none; stroke-width: 1; stroke-dasharray: none; stroke-linecap: butt; stroke-linejoin: miter; stroke-miterlimit: 10; fill: rgb(255,255,255); fill-rule: nonzero; opacity: 1;" transform=" matrix(1 0 0 1 0 0) " stroke-linecap="round" />
	<path d="M 45 72.818 c -11.311 0 -20.513 -9.202 -20.513 -20.513 v -9.878 c 0 -1.657 1.343 -3 3 -3 h 35.025 c 1.657 0 3 1.343 3 3 v 9.878 C 65.513 63.616 56.311 72.818 45 72.818 z M 30.487 45.427 v 6.878 c 0 8.002 6.51 14.513 14.513 14.513 c 8.002 0 14.513 -6.511 14.513 -14.513 v -6.878 H 30.487 z" style="stroke: none; stroke-width: 1; stroke-dasharray: none; stroke-linecap: butt; stroke-linejoin: miter; stroke-miterlimit: 10; fill: rgb(255,255,255); fill-rule: nonzero; opacity: 1;" transform=" matrix(1 0 0 1 0 0) " stroke-linecap="round" />
	<circle cx="44.998" cy="53.138" r="4.358" style="stroke: none; stroke-width: 1; stroke-dasharray: none; stroke-linecap: butt; stroke-linejoin: miter; stroke-miterlimit: 10; fill: rgb(255,255,255); fill-rule: nonzero; opacity: 1;" transform="  matrix(1 0 0 1 0 0) "/>
</g>
</svg>